<?xml version="1.0" encoding="UTF-8" standalone="no"?>
<!-- Created with Inkscape (http://www.inkscape.org/) -->

<svg
   version="1.1"
   id="svg1"
   width="682.66669"
   height="682.66669"
   viewBox="0 0 682.66669 682.66669"
   xmlns="http://www.w3.org/2000/svg"
   xmlns:svg="http://www.w3.org/2000/svg">
  <defs
     id="defs1" />
  <g
     id="g1">
    <path
       style="fill:#fefefe;fill-opacity:1;stroke:none"
       d="m 270.66667,590.66668 c -6.51452,-12.76147 -17.13419,-23.36409 -24.18416,-36 -17.10958,-30.66601 -27.31313,-67.40796 -26.46295,-102.66667 2.49591,-103.50993 86.30243,-195.40165 190.64712,-202.54733 46.30493,-3.17102 81.3573,11.41346 122.66667,29.21399 V 169.33334 c 0,-28.54216 0.72917,-55.64669 -19.06686,-78.665653 C 488.78916,61.042401 452.65337,64.000002 417.33335,64.000002 H 205.33334 c -33.13349,0 -66.81156,-2.399496 -91.6142,24.119345 C 85.512545,118.27767 92.000003,162.10201 92.000003,200.00001 v 254.66667 c 0,36.35238 -6.678691,80.22225 20.124487,109.33334 37.42025,40.64237 108.63085,26.66666 158.54218,26.66666 m -76,-440.81275 c 27.23059,-5.93445 61.42892,-0.52059 89.33334,-0.52059 47.25382,0 98.48885,-5.68095 145.33334,0.24691 19.79065,2.50439 25.37654,29.61344 7.99487,39.63374 -14.74809,8.50208 -44.62386,2.78602 -61.32821,2.78602 h -128 c -16.33116,0 -40.68354,4.5275 -55.99899,-1.32614 -19.58775,-7.48649 -18.23354,-36.2653 2.66565,-40.81994 m 0,85.33333 c 25.22557,-5.49752 56.82158,-0.52059 82.66667,-0.52059 12.73641,0 29.05595,-2.70341 41.33334,0.85083 19.50478,5.64653 20.38405,33.61027 1.33231,40.52263 -9.03157,3.27681 -21.1699,1.29321 -30.66565,1.29321 h -61.33333 c -10.98678,0 -25.57245,2.48975 -35.99899,-1.29321 -19.73616,-7.16065 -17.96181,-36.35746 2.66565,-40.85287 m 213.33334,57.37964 c -24.40226,3.32166 -48.48205,10.95935 -69.33333,24.36418 -18.35682,11.80119 -34.89724,27.625 -47.10494,45.7356 -57.90392,85.90275 -21.35857,209.75794 77.7716,245.73971 26.15516,9.49369 53.82337,12.24805 81.33334,8.5422 22.08793,-2.97547 43.80477,-11.08317 62.66667,-22.8488 98.39282,-61.37516 100.69515,-205.27173 8,-272.56377 -16.21281,-11.76969 -35.26579,-20.18457 -54.66667,-25.03601 -18.63627,-4.66024 -39.5413,-6.53646 -58.66667,-3.93311 m -213.33334,27.9537 c 11.83362,-2.57894 36.68419,-3.59367 46.41976,4.33024 13.59892,11.06832 7.82221,33.61031 -9.08642,37.29525 -12.06653,2.62972 -36.5294,3.51798 -46.41976,-4.5319 -13.64535,-11.10612 -7.93494,-33.38408 9.08642,-37.09359 m 253.33334,112.81275 c 12.83179,0 30.73654,-3.17969 42.66667,2.20369 12.3901,5.59094 16.94885,21.52303 8.57512,32.40536 -9.25603,12.02893 -28.52942,8.05761 -41.90845,8.05761 -12.72335,0 -33.502,4.03728 -43.94137,-4.52571 -15.22441,-12.48796 -8.06547,-49.64311 -8.05863,-67.47429 0.003,-7.72363 0.0356,-15.16443 5.63273,-21.18929 17.7504,-19.10685 37.02657,2.02783 37.03393,21.18929 z"
       id="path1" />
  </g>
</svg>
